<?xml version="1.0" encoding="UTF-8" standalone="no"?>
<svg
   version="1.1"
   id="svg4332"
   height="64px"
   width="64px"
   xmlns:xlink="http://www.w3.org/1999/xlink"
   xmlns="http://www.w3.org/2000/svg"
   xmlns:svg="http://www.w3.org/2000/svg"
   xmlns:rdf="http://www.w3.org/1999/02/22-rdf-syntax-ns#"
   xmlns:cc="http://creativecommons.org/ns#"
   xmlns:dc="http://purl.org/dc/elements/1.1/">
  <defs
     id="defs4334">
    <linearGradient
       y2="42.091705"
       x2="23.99999"
       y1="5.9093657"
       x1="23.99999"
       gradientTransform="matrix(1.4324324,0,0,1.4362832,-2.3783747,-2.4707827)"
       gradientUnits="userSpaceOnUse"
       id="linearGradient3904"
       xlink:href="#linearGradient4270" />
    <linearGradient
       id="linearGradient4270">
      <stop
         id="stop4272"
         style="stop-color:#ffffff;stop-opacity:1"
         offset="0" />
      <stop
         id="stop4274"
         style="stop-color:#ffffff;stop-opacity:0.23529412"
         offset="0.0348749" />
      <stop
         id="stop4276"
         style="stop-color:#ffffff;stop-opacity:0.15686275"
         offset="0.96216321" />
      <stop
         id="stop4278"
         style="stop-color:#ffffff;stop-opacity:0.39215687"
         offset="1" />
    </linearGradient>
    <linearGradient
       id="linearGradient3688-166-749-654">
      <stop
         offset="0"
         style="stop-color:#181818;stop-opacity:1"
         id="stop3088" />
      <stop
         offset="1"
         style="stop-color:#181818;stop-opacity:0"
         id="stop3090" />
    </linearGradient>
    <linearGradient
       id="linearGradient3702-501-757-795">
      <stop
         offset="0"
         style="stop-color:#181818;stop-opacity:0"
         id="stop3100" />
      <stop
         offset="0.5"
         style="stop-color:#181818;stop-opacity:1"
         id="stop3102" />
      <stop
         offset="1"
         style="stop-color:#181818;stop-opacity:0"
         id="stop3104" />
    </linearGradient>
    <radialGradient
       cx="4.9929786"
       cy="43.5"
       r="2.5"
       fx="4.9929786"
       fy="43.5"
       id="radialGradient3337-2-2"
       xlink:href="#linearGradient3688-166-749-654"
       gradientUnits="userSpaceOnUse"
       gradientTransform="matrix(2.4045407,0,0,0.99999998,41.985755,15.500001)" />
    <radialGradient
       cx="4.9929786"
       cy="43.5"
       r="2.5"
       fx="4.9929786"
       fy="43.5"
       id="radialGradient3339-1-4"
       xlink:href="#linearGradient3688-166-749-654"
       gradientUnits="userSpaceOnUse"
       gradientTransform="matrix(2.4045407,0,0,0.99999998,-22.014244,-102.5)" />
    <linearGradient
       x1="25.058096"
       y1="47.027729"
       x2="25.058096"
       y2="39.999443"
       id="linearGradient6394"
       xlink:href="#linearGradient3702-501-757-795"
       gradientUnits="userSpaceOnUse"
       gradientTransform="matrix(1.5714286,0,0,0.7142857,-5.7142853,27.928572)" />
    <linearGradient
       xlink:href="#linearGradient909-3"
       id="linearGradient899"
       x1="31.781376"
       y1="4.9266648"
       x2="31.781376"
       y2="59.148476"
       gradientUnits="userSpaceOnUse" />
    <linearGradient
       id="linearGradient909-3">
      <stop
         id="stop901-6"
         style="stop-color:#64baff;stop-opacity:1"
         offset="0" />
      <stop
         id="stop907-7"
         style="stop-color:#3689e6;stop-opacity:1"
         offset="1" />
    </linearGradient>
  </defs>
  <metadata
     id="metadata4337">
    <rdf:RDF>
      <cc:Work
         rdf:about="">
        <dc:format>image/svg+xml</dc:format>
        <dc:type
           rdf:resource="http://purl.org/dc/dcmitype/StillImage" />
      </cc:Work>
    </rdf:RDF>
  </metadata>
  <g
     id="g866">
    <rect
       style="opacity:0.6;fill:url(#radialGradient3337-2-2);fill-opacity:1;stroke:none;stroke-width:1.06199"
       id="rect2801-5-5-7-9"
       y="56.5"
       x="54"
       height="5"
       width="6" />
    <rect
       style="opacity:0.6;fill:url(#radialGradient3339-1-4);fill-opacity:1;stroke:none;stroke-width:1.06199"
       id="rect3696-3-0-3-7"
       transform="scale(-1)"
       y="-61.5"
       x="-10"
       height="5"
       width="6" />
    <rect
       style="opacity:0.6;fill:url(#linearGradient6394);fill-opacity:1;stroke:none;stroke-width:1.06199"
       id="rect3700-5-6-8-4"
       y="56.5"
       x="10"
       height="5.0000005"
       width="44" />
  </g>
  <rect
     width="55"
     height="55"
     rx="6"
     ry="6"
     x="4.5"
     y="4.5"
     id="rect5505-21-3-8-5-2-9"
     style="color:#000000;display:inline;overflow:visible;visibility:visible;fill:url(#linearGradient899);fill-opacity:1.0;fill-rule:nonzero;stroke:#002e99;stroke-width:1;marker:none;enable-background:accumulate;stroke-opacity:0.5" />
  <path
     id="path873-5-3-3-7-5-6"
     style="font-variation-settings:normal;opacity:0.15;vector-effect:none;fill:#002e99;fill-opacity:1;stroke:none;stroke-width:1;stroke-linecap:butt;stroke-linejoin:miter;stroke-miterlimit:4;stroke-dasharray:none;stroke-dashoffset:0;stroke-opacity:1;-inkscape-stroke:none;marker:none;stop-color:#000000;stop-opacity:1"
     d="m 27,30.757812 c 0,1.08073 0,2.161459 0,3.242188 -2.178826,0.03956 -4.368496,-0.07734 -6.541016,0.05469 -2.012068,0.382233 -2.621517,3.287557 -1.099609,4.572265 3.660371,3.915038 7.269047,7.887176 10.961576,11.766692 1.176403,1.041104 3.105803,0.657555 3.962246,-0.60878 3.570034,-3.860551 7.171492,-7.697101 10.722662,-11.571974 1.014842,-1.368974 0.439982,-3.740032 -1.33532,-4.128356 C 42.456563,33.887202 41.185831,34.056278 39.95,34 c -0.983333,0 -1.966667,0 -2.95,0 0.02375,-1.881397 0.02877,-3.761753 -0.26567,-5.625485 0.01846,-1.0478 -0.234919,-0.726613 -0.575716,0.03485 -0.416172,0.68518 -0.742322,1.471271 -1.19377,2.112116 -0.374668,0.226195 -0.776404,-0.10082 -0.625,-0.523437 C 34.220808,28.220677 31.869916,27.432069 30.541063,28.467412 29.84482,28.9013 29.667775,29.75407 29.587891,30.492185 29.14658,30.802516 28.788846,30.330317 28.682823,29.936917 28.241673,29.135028 27.800524,28.333139 27.359375,27.53125 27.239583,28.606771 27.119792,29.682292 27,30.757812 Z" />
  <rect
     style="opacity:0.3;fill:none;stroke:url(#linearGradient3904);stroke-width:1;stroke-linecap:round;stroke-linejoin:round;stroke-miterlimit:4;stroke-dasharray:none;stroke-dashoffset:0;stroke-opacity:1"
     id="rect6741"
     y="5.428761"
     x="5.5"
     ry="5"
     rx="5"
     height="53.142479"
     width="53" />
  <g
     id="g6068"
     style="opacity:0.2"
     transform="translate(0,-2)">
    <path
       id="path10554-6"
       style="color:#bebebe;font-variation-settings:normal;display:inline;overflow:visible;visibility:visible;opacity:0.15;vector-effect:none;fill:#002e99;fill-opacity:1;fill-rule:nonzero;stroke:none;stroke-width:1;stroke-linecap:butt;stroke-linejoin:miter;stroke-miterlimit:4;stroke-dasharray:none;stroke-dashoffset:0;stroke-opacity:1;-inkscape-stroke:none;marker:none;enable-background:accumulate;stop-color:#000000"
       d="m 31.90625,17.003906 c -1.24448,0.0064 -2.337612,1.097809 -2.248047,2.359375 -0.07991,0.305456 -0.786136,0.229299 -0.660156,-0.160156 -0.357422,-0.697266 -0.714844,-1.394531 -1.072266,-2.091797 -0.348472,1.012525 -1.092539,1.943918 -0.925781,3.06211 0,5.979296 0,11.958593 0,17.93789 3.333333,0 6.666667,0 10,0 0,-6.279297 0,-12.558594 0,-18.83789 -0.308594,-0.720704 -0.617188,-1.441407 -0.925781,-2.16211 -0.382594,0.778881 -0.858073,1.579684 -1.150391,2.361328 -0.291558,0.18349 -0.723284,0.019 -0.598797,-0.369286 -0.02914,-1.269575 -1.203535,-2.150942 -2.418781,-2.099464 z" />
    <path
       style="color:#bebebe;display:inline;overflow:visible;visibility:visible;opacity:1;fill:#fafafa;fill-opacity:1;fill-rule:nonzero;stroke:none;stroke-width:1;marker:none;enable-background:accumulate"
       id="path10554"
       d="m 32,18 c 0,0 -1.333334,0 -1.333334,1.274087 0,1.274086 -1.333333,1.274086 -1.333333,1.274086 0,0 -1.333333,0.0013 -1.333333,-1.274086 v 17.837226 h 8 V 19.274087 c 0,1.274086 -1.333334,1.274086 -1.333334,1.274086 0,0 -1.333333,0 -1.333333,-1.274086 C 33.333333,18 32,18 32,18 Z" />
  </g>
  <g
     id="g6058"
     style="opacity:0.5"
     transform="translate(0,-2)">
    <path
       id="path10536-18"
       style="color:#bebebe;font-variation-settings:normal;display:inline;overflow:visible;visibility:visible;opacity:0.15;vector-effect:none;fill:#002e99;fill-opacity:1;fill-rule:nonzero;stroke:none;stroke-width:1;stroke-linecap:butt;stroke-linejoin:miter;stroke-miterlimit:4;stroke-dasharray:none;stroke-dashoffset:0;stroke-opacity:1;-inkscape-stroke:none;marker:none;enable-background:accumulate;stop-color:#000000;stop-opacity:1"
       d="M 29.240234,24.003906 C 27.953492,24.005003 26.842496,25.17623 27,26.473438 c 0,3.17552 0,6.351041 0,9.526562 3.333333,0 6.666667,0 10,0 -0.02565,-3.383295 0.05072,-6.772828 -0.03711,-10.152344 -0.2344,-1.819905 -2.784573,-2.434606 -3.994141,-1.171875 -0.515433,0.446253 -0.60343,1.152671 -0.679688,1.775391 -0.268933,0.209313 -0.771421,0.06304 -0.631408,-0.347841 -0.02636,-1.267353 -1.203998,-2.151054 -2.417419,-2.099425 z" />
    <path
       style="color:#bebebe;display:inline;overflow:visible;visibility:visible;opacity:1;fill:#fafafa;fill-opacity:1;fill-rule:nonzero;stroke:none;stroke-width:1;marker:none;enable-background:accumulate"
       id="path10536"
       d="M 29.333334,25 C 29.333334,25 28,24.9986 28,26.274086 v 8.72592 h 8 v -8.72592 C 36,25 34.666666,25 34.666666,25 c 0,0 -1.333332,0 -1.333332,1.274086 0,1.274088 -1.333334,1.274088 -1.333334,1.274088 0,0 -1.333334,0 -1.333334,-1.274088 C 30.666666,25 29.333334,25 29.333334,25 Z" />
  </g>
  <path
     id="path873-5-3-3-7-5-09"
     style="font-variation-settings:normal;opacity:0.3;vector-effect:none;fill:#002e99;fill-opacity:1;stroke:none;stroke-width:1;stroke-linecap:butt;stroke-linejoin:miter;stroke-miterlimit:4;stroke-dasharray:none;stroke-dashoffset:0;stroke-opacity:1;-inkscape-stroke:none;marker:none;stop-color:#000000;stop-opacity:1"
     d="m 21,35 c -0.923348,0 -1.5,0.742668 -1.5,1.666016 0,0.497647 0.216889,0.943166 0.560547,1.248046 l 10.796875,11.63086 C 31.155918,49.82673 31.557093,50 32,50 c 0.442905,0 0.844082,-0.173271 1.142578,-0.455078 L 43.939453,37.914062 C 44.283109,37.609183 44.5,37.163663 44.5,36.666016 44.5,35.742668 44.145779,35.223938 43.25,35 Z" />
  <path
     id="path873-5-3-3-7-5"
     style="font-variation-settings:normal;vector-effect:none;fill:#fafafa;fill-opacity:1;stroke:none;stroke-width:1;stroke-linecap:butt;stroke-linejoin:miter;stroke-miterlimit:4;stroke-dasharray:none;stroke-dashoffset:0;stroke-opacity:1;-inkscape-stroke:none;marker:none;stop-color:#000000"
     d="m 32,28 c 0,0 -1.357422,3.7e-5 -1.357422,1.296875 0,1.296838 -1.357422,1.294922 -1.357422,1.294922 0,0 -1.007352,-0.0016 -1.285156,-0.833985 V 34 h -1 -6 c -0.923348,0 -1.5,0.742668 -1.5,1.666016 0,0.497647 0.216889,0.943166 0.560547,1.248046 l 10.796875,11.63086 C 31.155918,48.82673 31.557093,49 32,49 c 0.442905,0 0.844082,-0.173271 1.142578,-0.455078 L 43.939453,36.914062 C 44.283109,36.609183 44.5,36.163663 44.5,35.666016 44.5,34.742668 44.145779,34.223938 43.25,34 H 37 36 v -4.240234 c -0.277974,0.831365 -1.285156,0.832031 -1.285156,0.832031 0,0 -1.357422,-3.8e-5 -1.357422,-1.296875 C 33.357422,27.998107 32,28 32,28 Z" />
  <path
     id="path873-5-3-3-7-5-7"
     style="font-variation-settings:normal;opacity:0.07;vector-effect:none;fill:#002e99;fill-opacity:1;stroke:none;stroke-width:2;stroke-linecap:butt;stroke-linejoin:miter;stroke-miterlimit:4;stroke-dasharray:none;stroke-dashoffset:0;stroke-opacity:1;-inkscape-stroke:none;marker:none;stop-color:#000000;stop-opacity:1"
     d="m 44.375,34.894531 c -3.347366,3.642657 -6.731984,7.257403 -10.091797,10.890625 -0.856442,1.266334 -2.786489,1.650478 -3.962891,0.609375 C 26.723285,42.615353 23.205763,38.748202 19.642578,34.931641 19.552972,35.153635 19.5,35.400945 19.5,35.666016 c 0,0.497646 0.216889,0.943167 0.560547,1.248046 l 10.796875,11.63086 C 31.155918,48.82673 31.557093,49 32,49 c 0.442905,0 0.844082,-0.173271 1.142578,-0.455078 L 43.939453,36.914062 C 44.283109,36.609184 44.5,36.163662 44.5,35.666016 c 0,-0.3002 -0.04368,-0.55305 -0.125,-0.771485 z" />
  <path
     id="path873-5-3-3-7-5-20"
     style="font-variation-settings:normal;opacity:0.07;vector-effect:none;fill:#002e99;fill-opacity:1;stroke:none;stroke-width:2.5;stroke-linecap:butt;stroke-linejoin:miter;stroke-miterlimit:4;stroke-dasharray:none;stroke-dashoffset:0;stroke-opacity:1;-inkscape-stroke:none;marker:none;stop-color:#000000;stop-opacity:1"
     d="m 44.439453,35.103516 c -0.0862,0.317742 -0.261341,0.598817 -0.5,0.810546 L 33.142578,47.544922 C 32.844082,47.826729 32.442905,48 32,48 31.557093,48 31.155918,47.82673 30.857422,47.544922 L 20.060547,35.914062 C 19.83308,35.712263 19.662521,35.447801 19.572266,35.148438 19.529186,35.312149 19.5,35.483945 19.5,35.666016 c 0,0.497646 0.216889,0.943167 0.560547,1.248046 l 10.796875,11.63086 C 31.155918,48.82673 31.557093,49 32,49 c 0.442905,0 0.844082,-0.173271 1.142578,-0.455078 L 43.939453,36.914062 C 44.283109,36.609184 44.5,36.163662 44.5,35.666016 c 0,-0.208408 -0.0223,-0.394056 -0.06055,-0.5625 z" />
</svg>
